# xmcd CD database file
#
# Track frame offsets:
#	150
#	4247
#	29398
#	49384
#	53609
#	72600
#	96158
#	113678
#	132371
#	135087
#	158061
#	176529
#	180068
#	200240
#	217893
#	237078
#	241410
#	267192
#
# Disc length: 3818 seconds
#
# Revision: 2
# Processed by: cddbd v1.5.1PL0 Copyright (c) Steve Scherf et al.
# Submitted via: CDex 1.51
#
DISCID=f20ee812
DTITLE=Soulhead - BRAIDED
DYEAR=2004
DGENRE=Hip-Hop
TTITLE0=BRAIDED intro
TTITLE1=YOU CAN DO THAT
TTITLE2=AT THE PARTY
TTITLE3=Jiggy Uhh.. pt.1 skit
TTITLE4=KOKUHAKU
TTITLE5=ITUDEMO KIMINOKOTWO
TTITLE6=NO WAY
TTITLE7=A pretense of love
TTITLE8=I&I interlude
TTITLE9=Forgive me
TTITLE10=words of love
TTITLE11=Jiggy Uhh... pt.2 skit
TTITLE12=D.O.G album ver.
TTITLE13=STAY THERE
TTITLE14=FOR ALL MY LADIES
TTITLE15=Jiggy Uhh... pt.3 skit
TTITLE16=KONOMAMA
TTITLE17=(bonus frack)GET UP!
EXTD=YEAR: 2004
EXTT0=
EXTT1=
EXTT2=
EXTT3=
EXTT4=
EXTT5=
EXTT6=
EXTT7=
EXTT8=
EXTT9=
EXTT10=
EXTT11=
EXTT12=
EXTT13=
EXTT14=
EXTT15=
EXTT16=
EXTT17=
PLAYORDER=
